<?xml version="1.0" encoding="utf-8"?>
<!-- Generator: Adobe Illustrator 16.0.0, SVG Export Plug-In . SVG Version: 6.00 Build 0)  -->
<!DOCTYPE svg PUBLIC "-//W3C//DTD SVG 1.1//EN" "http://www.w3.org/Graphics/SVG/1.1/DTD/svg11.dtd">
<svg version="1.1" id="Layer_1" xmlns="http://www.w3.org/2000/svg" xmlns:xlink="http://www.w3.org/1999/xlink" x="0px" y="0px"
	 width="200px" height="200px" viewBox="0 0 200 200" enable-background="new 0 0 200 200" xml:space="preserve">
<g>
	<path fill-rule="evenodd" clip-rule="evenodd" fill="#E40520" d="M67.968,95.265l7.274-16.517h1.255l7.089,16.517h-2.935
		l-1.84-4.426h-6.045l-1.881,4.426H67.968L67.968,95.265z M75.824,83.709l-1.959,4.593h3.878L75.824,83.709L75.824,83.709z"/>
	<polygon fill-rule="evenodd" clip-rule="evenodd" fill="#E40520" points="85.862,95.265 85.862,78.748 88.525,78.748 
		88.525,92.727 92.826,92.726 92.826,95.265 85.862,95.265 	"/>
	<path fill-rule="evenodd" clip-rule="evenodd" fill="#E40520" d="M107.893,87.027c0,2.396-0.877,4.531-2.699,6.156
		c-1.981,1.764-3.98,2.082-6.468,2.082h-3.358V78.748h3.398c2.384,0,4.418,0.317,6.381,1.993
		C107.042,82.372,107.893,84.598,107.893,87.027L107.893,87.027z M103.361,82.681c-1.303-1.152-2.736-1.395-4.532-1.395h-0.801
		v11.441l0.801-0.001c1.854,0,3.304-0.262,4.604-1.487c1.185-1.107,1.798-2.616,1.798-4.232
		C105.23,85.345,104.594,83.76,103.361,82.681L103.361,82.681z"/>
	<path fill-rule="evenodd" clip-rule="evenodd" fill="#E40520" d="M118.506,78.479c4.697,0,8.59,3.823,8.59,8.548
		c0,4.75-3.896,8.506-8.59,8.506s-8.59-3.756-8.59-8.506C109.916,82.302,113.809,78.479,118.506,78.479L118.506,78.479z
		 M118.506,81.018c-3.314,0-5.928,2.7-5.928,5.989c0,3.266,2.653,5.989,5.928,5.989c3.273,0,5.928-2.723,5.928-5.989
		C124.434,83.718,121.82,81.018,118.506,81.018L118.506,81.018z"/>
	<path fill-rule="evenodd" clip-rule="evenodd" fill="#E40520" d="M134.033,117.002l7.275-16.516h1.255l7.087,16.516h-2.934
		l-1.841-4.426h-6.044l-1.881,4.426H134.033L134.033,117.002z M141.892,105.445l-1.962,4.592h3.879L141.892,105.445L141.892,105.445
		z"/>
	<path fill-rule="evenodd" clip-rule="evenodd" fill="#E40520" d="M49.702,108.742c0,3.193,2.64,5.99,5.866,5.99
		c1.616,0,3.218-0.764,4.388-1.934l0.79-0.788v3.503c-1.61,1.164-3.358,1.756-5.116,1.756c-4.649,0-8.59-3.773-8.59-8.464
		c0-4.724,3.87-8.59,8.59-8.59c1.834,0,3.462,0.528,4.93,1.623l0.215,3.695l-0.824-0.853c-1.16-1.198-2.759-1.927-4.425-1.927
		C52.325,102.754,49.702,105.547,49.702,108.742L49.702,108.742z"/>
	<path fill-rule="evenodd" clip-rule="evenodd" fill="#E40520" d="M71.448,100.215c4.697,0,8.589,3.823,8.589,8.548
		c0,4.751-3.896,8.506-8.589,8.506c-4.695,0-8.591-3.755-8.591-8.506C62.857,104.038,66.749,100.215,71.448,100.215L71.448,100.215z
		 M71.448,102.754c-3.316,0-5.927,2.701-5.927,5.988c0,3.269,2.652,5.99,5.927,5.99c3.274,0,5.926-2.722,5.926-5.99
		C77.375,105.455,74.762,102.754,71.448,102.754L71.448,102.754z"/>
	<path fill-rule="evenodd" clip-rule="evenodd" fill="#E40520" d="M85.809,100.485c1.33,0,2.859,0.031,4.131,0.91
		c1.301,0.906,1.957,2.425,1.957,3.936c0,1.379-0.563,2.801-1.656,3.708c-1.185,0.976-2.671,1.14-3.997,1.14h-0.798v6.824h-2.663
		v-16.517H85.809L85.809,100.485z M85.622,103.023h-0.177v4.616h0.695c1.862,0,3.094-0.53,3.094-2.351
		C89.234,103.24,87.732,103.023,85.622,103.023L85.622,103.023z"/>
	<path fill-rule="evenodd" clip-rule="evenodd" fill="#E40520" d="M97.958,100.485c1.329,0,2.859,0.031,4.13,0.91
		c1.301,0.906,1.958,2.425,1.958,3.936c0,1.379-0.563,2.801-1.657,3.708c-1.186,0.976-2.67,1.14-3.996,1.14h-0.798v6.824h-2.663
		v-16.517H97.958L97.958,100.485z M97.772,103.023h-0.178v4.616h0.695c1.861,0,3.095-0.53,3.095-2.351
		C101.385,103.24,99.882,103.023,97.772,103.023L97.772,103.023z"/>
	<path fill-rule="evenodd" clip-rule="evenodd" fill="#E40520" d="M114.477,100.215c4.697,0,8.59,3.823,8.59,8.548
		c0,4.751-3.896,8.506-8.59,8.506c-4.693,0-8.59-3.755-8.59-8.506C105.887,104.038,109.778,100.215,114.477,100.215L114.477,100.215
		z M114.477,102.754c-3.314,0-5.928,2.701-5.928,5.988c0,3.269,2.654,5.99,5.928,5.99s5.928-2.722,5.928-5.99
		C120.404,105.455,117.791,102.754,114.477,102.754L114.477,102.754z"/>
	<polygon fill-rule="evenodd" clip-rule="evenodd" fill="#E40520" points="125.811,117.002 125.811,100.485 128.474,100.485 
		128.474,114.464 132.774,114.464 132.774,117.002 125.811,117.002 	"/>
	<path fill-rule="evenodd" clip-rule="evenodd" fill="#E40520" d="M86.567,38.056l-0.17,0.079c-0.099,0.047-0.167,0.101-0.223,0.157
		l-0.084,0.098l-0.094,0.115c-0.164,0.194-0.373,0.363-0.794,0.363c-0.164,0-0.227,0-0.377-0.036l-0.102-0.023l-0.131-0.174
		c-0.056-0.071-0.08-0.092-0.135-0.112l-0.184-0.068l-0.008-0.196c-0.005-0.105,0.028-0.192,0.067-0.258
		c0.036-0.06,0.079-0.106,0.105-0.132l0.226-0.237c0.061-0.02,0.121-0.025,0.16-0.028h0.121c0.06,0,0.128,0.003,0.188-0.004
		c0.387-0.307,0.412-0.313,0.421-0.315c0.042-0.011,0.074-0.027,0.112-0.039c0.167-0.052,0.35-0.046,0.685,0.044l0.218,0.057V38.056
		L86.567,38.056z M67.915,38.875l-0.458,0.101l-0.088,0.115l-0.159,0.118l-0.257,0.101l-0.419,0.143l-0.538,0.226
		c-0.038,0.01-0.095,0.023-0.154,0.023c-0.343,0-0.526-0.178-0.637-0.367c-0.038-0.067-0.071-0.141-0.108-0.213
		c-0.03-0.059-0.054-0.095-0.079-0.121l-0.157-0.31l0.571-0.19v-0.198h0.433l0.504-0.016l0.333,0.002l0.333,0.04v-0.211h0.878
		V38.875L67.915,38.875z M153.232,144.166c-0.061,0.041-0.109,0.078-0.146,0.109c-0.106-0.022-0.148-0.017-0.179-0.01
		c0.011,0.087,0.062,0.1,0.118,0.096l0.269-0.04l-0.192,0.19c-1.364,1.355-2.814,2.903-4.162,4.225
		c-0.09,0.089-0.199,0.213-0.314,0.338c-0.118,0.128-0.249,0.264-0.378,0.365c-0.256,0.203-0.606,0.686-0.762,0.96
		c-0.082,0.075-0.12,0.083-0.146,0.089l-0.086,0.014l-0.105,0.01l-0.096,0.102c-0.044,0.047-0.086,0.094-0.123,0.162
		c-0.236,0.13-0.404,0.248-0.556,0.371c-0.155,0.126-0.28,0.249-0.348,0.305c-0.238,0.105-0.462,0.283-0.698,0.485
		c-0.117,0.101-0.234,0.203-0.344,0.294c-0.113,0.093-0.225,0.178-0.335,0.241c-0.233,0.139-0.428,0.306-0.603,0.464l-0.248,0.223
		c-0.072,0.061-0.146,0.118-0.219,0.162c-0.016,0.098-0.024,0.133-0.047,0.166c-0.178,0.117-0.283,0.219-0.4,0.339
		c-0.059,0.061-0.117,0.121-0.18,0.179c-0.064,0.059-0.133,0.115-0.211,0.162c-0.424,0.266-0.675,0.484-1.068,0.97
		c-0.349,0.276-0.75,0.544-1.124,0.826c-0.372,0.282-0.702,0.569-0.907,0.867l-0.152,0.083l-0.096,0.041
		c-0.066,0.028-0.152,0.064-0.246,0.068c-0.377,0.04-0.871,0.373-1.348,0.785c-0.469,0.403-0.88,0.849-1.076,1.053l-0.092,0.047
		c-0.143,0.013-0.286,0.049-0.432,0.084c-0.134,0.032-0.281,0.066-0.429,0.078l-0.085,0.104c-0.188,0.123-0.377,0.213-0.574,0.299
		l-0.603,0.256c-0.407,0.179-0.769,0.37-0.983,0.633l-0.098,0.054c-0.05,0.007-0.098,0.019-0.145,0.031l-0.152,0.05
		c-0.082,0.029-0.174,0.063-0.278,0.08l-0.013,0.116l-0.029,0.193l-0.178-0.085c-0.098-0.045-0.186-0.016-0.284,0.086
		c-0.049,0.05-0.093,0.11-0.131,0.171c-0.039,0.062-0.067,0.118-0.087,0.155c-0.145,0.106-0.23,0.144-0.314,0.189
		c-0.076,0.042-0.145,0.09-0.207,0.16l-0.088,0.046c-0.092,0.015-0.205,0.013-0.328,0.013c-0.113,0-0.219,0.005-0.322,0.027
		c-0.229,0.058-0.5,0.213-0.777,0.382c-0.102,0.032-0.185,0.04-0.276,0.046l-0.176,0.01c-0.017,0.072-0.024,0.108-0.044,0.143
		c-0.191,0.119-0.268,0.182-0.324,0.247c-0.029,0.033-0.055,0.068-0.082,0.11l-0.088,0.145c-0.141,0.098-0.226,0.135-0.309,0.182
		c-0.075,0.041-0.143,0.088-0.207,0.158c-0.143,0.062-0.23,0.068-0.311,0.074l-0.178,0.008l-0.135,0.114
		c-0.107,0.058-0.138,0.075-0.166,0.096l-0.096,0.135h-0.088c-0.436-0.003-0.756,0.035-0.911,0.354
		c-0.117,0.086-0.153,0.086-0.175,0.086c-0.098-0.008-0.135-0.013-0.168-0.01l0.002,0.184l-0.15,0.007
		c-0.322,0.017-0.395,0.062-0.543,0.329l-0.746,0.076v-0.545l0.097-0.035c0.158-0.059,0.236-0.139,0.31-0.293l0.116-0.083
		c0.153-0.019,0.351-0.022,0.511-0.02c0.046-0.131,0.102-0.246,0.172-0.397l0.092-0.08c0.027-0.008,0.064-0.011,0.104-0.012
		c0.073-0.014,0.115-0.028,0.168-0.124l0.824-0.076c0.104-0.249,0.28-0.31,0.514-0.332c0.102-0.149,0.307-0.339,0.566-0.341
		l0.041-0.109c0.178-0.033,0.314-0.037,0.421-0.046c0.049-0.09,0.122-0.168,0.199-0.235c0.106-0.094,0.236-0.186,0.362-0.27
		c0.125-0.086,0.256-0.169,0.369-0.254c0.113-0.082,0.197-0.158,0.247-0.225l0.138-0.061c0.302,0.036,1.043-0.355,1.291-0.586
		c0.084-0.078,0.184-0.155,0.287-0.23c0.101-0.074,0.208-0.149,0.316-0.223c0.215-0.148,0.419-0.289,0.575-0.432
		c0.503-0.119,0.882-0.307,1.276-0.526c0.393-0.222,0.791-0.467,1.248-0.659l0.041-0.133c0.236-0.096,0.418-0.195,0.608-0.308
		c0.192-0.117,0.392-0.247,0.591-0.377c0.576-0.368,1.113-0.854,1.736-1.277c0.428-0.29,0.904-0.56,1.383-0.841
		c0.471-0.277,0.942-0.564,1.369-0.89c0.05-0.04,0.08-0.078,0.111-0.128c0.035-0.062,0.066-0.133,0.106-0.219l0.108-0.082
		c0.045-0.01,0.094-0.01,0.132-0.01l0.117,0.005l0.103-0.007c0.315-0.244,0.782-0.569,1.223-0.924
		c0.443-0.356,0.84-0.729,1.036-1.068l0.2-0.115c0.038-0.016,0.082-0.032,0.133-0.045l0.078-0.107
		c0.036-0.053,0.056-0.092,0.061-0.121l0.088-0.109c0.029-0.013,0.061-0.02,0.088-0.023l0.17-0.021
		c0.08-0.123,0.214-0.201,0.334-0.269c0.076-0.042,0.16-0.087,0.252-0.142c0.088-0.053,0.183-0.115,0.28-0.195l0.063-0.115
		l0.049-0.102c0.018-0.033,0.041-0.074,0.074-0.107c1.173-1.196,2.393-2.409,3.77-3.718c0.357-0.196,0.738-0.551,1.139-0.958
		c0.389-0.398,0.778-0.83,1.127-1.16l0.029-0.137c0.055-0.085,0.087-0.12,0.119-0.152c0.131-0.132,0.17-0.178,0.203-0.248
		c0.109-0.088,0.142-0.094,0.161-0.097l0.077-0.159c0.02-0.07,0.035-0.143,0.039-0.21l0.008-0.122l0.123-0.015l0.107-0.01
		c0.045-0.067,0.102-0.149,0.151-0.236c0.063-0.112,0.129-0.236,0.202-0.358c0.51-0.314,1.75-1.679,1.689-2.314l-0.014-0.143
		l0.143-0.018c0.068-0.01,0.158-0.01,0.25-0.021c0.275-0.388,0.77-1.156,1.137-1.718c0.145-0.223,0.311-0.426,0.467-0.639
		c0.153-0.207,0.289-0.415,0.382-0.654c0.337-0.398,0.708-0.936,1.056-1.463c0.348-0.529,0.669-1.041,0.873-1.336
		c0.086-0.122,0.207-0.24,0.307-0.379c0.092-0.125,0.154-0.254,0.158-0.418l0.059-0.112c0.038-0.03,0.077-0.078,0.121-0.14
		l0.064-0.094c0.021-0.029,0.047-0.062,0.072-0.09c0.021-0.021,0.033-0.047,0.039-0.089c0.01-0.062,0.008-0.124,0.018-0.186
		l0.047-0.087c0.039-0.035,0.073-0.088,0.102-0.141c0.128-0.236,0.215-0.316,0.301-0.387l0.205-0.157l0.014-0.118l0.021-0.1
		c0.082-0.11,0.15-0.174,0.212-0.228c0.056-0.046,0.106-0.082,0.15-0.125c0.061-0.059,0.112-0.129,0.119-0.339l0.003-0.089
		c0.146-0.073,0.209-0.126,0.277-0.196l0.107-0.111l0.088-0.127c0.011-0.094,0.016-0.124,0.025-0.151
		c0.197-0.191,0.332-0.396,0.461-0.657c0.009-0.021,0.016-0.064,0.016-0.146l0.003-0.118c0.001-0.045,0.003-0.09,0.01-0.127
		l0.088-0.111c0.075-0.07,0.087-0.113,0.103-0.158c0.021-0.059,0.049-0.119,0.074-0.18c0.053-0.115,0.095-0.221,0.103-0.352
		l0.007-0.089l0.146-0.058c0.465-0.998,0.951-2.055,1.335-3.037c0.304-0.396,0.624-1.041,0.545-1.488l-0.015-0.088
		c0.359-0.283,0.561-0.639,0.732-1.06c0.172-0.427,0.303-0.896,0.461-1.32c0.02-0.05,0.05-0.092,0.076-0.128l0.09-0.098l0.117-0.132
		c0.146-0.239,0.234-0.804,0.192-1.102l-0.022-0.148l0.148-0.019l0.115-0.01c0.088-0.271,0.213-0.549,0.311-0.826
		c0.102-0.288,0.165-0.553,0.136-0.803l0.062-0.135c0.137-0.102,0.244-0.357,0.346-0.717c0.099-0.354,0.177-0.748,0.286-1.047
		l0.088-0.089c0.021-0.007,0.062-0.038,0.124-0.095c0.061-0.057,0.121-0.117,0.17-0.156l0.238-0.193v0.699
		c0.006,0.125-0.049,0.182-0.111,0.2v0.813c0,0.069-0.023,0.135-0.045,0.188c-0.023,0.05-0.053,0.105-0.08,0.16
		c-0.026,0.047-0.053,0.096-0.074,0.142c-0.021,0.046-0.032,0.08-0.034,0.107c-0.038,0.317-0.04,0.646-0.103,0.956
		c-0.031,0.156-0.111,0.299-0.188,0.425c-0.074,0.121-0.156,0.242-0.221,0.373c-0.01,0.022-0.016,0.052-0.016,0.112v0.096
		c-0.002,0.035-0.004,0.076-0.014,0.118c-0.18,0.183-0.227,0.31-0.312,0.577c-0.084,0.096-0.108,0.105-0.125,0.112
		c-0.025,0.242-0.086,0.506-0.16,0.848l-0.027,0.116h-0.188l-0.018,0.134c-0.01,0.091-0.016,0.183-0.029,0.273l-0.048,0.087
		l-0.144,0.127c-0.032,0.028-0.064,0.053-0.103,0.078c-0.251,0.858-0.524,1.859-0.819,2.746c-0.311,0.916-0.846,1.859-1.245,2.729
		c-0.079,0.078-0.103,0.088-0.12,0.094c-0.662,1.26-1.344,2.578-1.911,3.82l-1.079,2.365c-0.171,0.068-0.215,0.121-0.275,0.305
		c-0.119,0.11-0.146,0.148-0.184,0.213l-0.066,0.112c-0.025,0.04-0.059,0.083-0.105,0.122c-0.359,0.312-0.679,0.639-0.797,1.143
		l-0.032,0.141l-0.141-0.029c-0.134-0.027-0.208,0.018-0.267,0.105c-0.067,0.104-0.105,0.261-0.127,0.426l-0.062,0.104
		c-0.236,0.161-0.51,0.357-0.672,0.562c-0.016,0.019-0.027,0.051-0.037,0.105c-0.013,0.064-0.018,0.132-0.033,0.191l-0.062,0.088
		c-0.034,0.021-0.071,0.033-0.093,0.037c-0.09,0.188-0.153,0.328-0.231,0.478c-0.294,0.192-0.464,0.312-0.474,0.562l-0.004,0.096
		l-0.088,0.035c-0.096,0.039-0.169,0.096-0.242,0.164l-0.111,0.107c-0.117,0.257-0.201,0.414-0.307,0.557
		c-0.056,0.077-0.119,0.15-0.188,0.226l-0.209,0.216c-0.287,0.285-0.571,0.581-0.707,1.025c-0.115,0.135-0.201,0.236-0.295,0.357
		c-0.096,0.123-0.191,0.256-0.284,0.381c-0.187,0.254-0.401,0.482-0.587,0.699c-0.184,0.217-0.318,0.4-0.377,0.576
		c-0.102,0.125-0.182,0.184-0.262,0.24L153.232,144.166L153.232,144.166z M153.086,144.275c-0.117,0.09-0.168,0.077-0.193-0.004
		c0.045-0.013,0.087-0.019,0.137-0.008L153.086,144.275L153.086,144.275z M123.571,164.18v-0.118h0.786l-0.308,0.26
		c-0.194,0.165-0.278,0.253-0.336,0.417l-0.031,0.086l-0.091,0.01c-0.35,0.041-0.652,0.168-0.952,0.324
		c-0.312,0.161-0.61,0.345-0.933,0.479l-0.639,0.012l0.184-0.238c0.064-0.08,0.125-0.148,0.179-0.228
		c0.049-0.071,0.095-0.151,0.134-0.263l0.111-0.096c0.104-0.019,0.144-0.028,0.18-0.043c0.566-0.264,0.779-0.336,0.874-0.523
		L123.571,164.18L123.571,164.18z M98.984,25.001h5.077c0.154-0.009,0.148,0.059,0.202,0.095c0.364,0.023,0.731,0.085,1.123,0.094
		v0.924h-2.141c-0.009-0.147-0.005-0.258-0.056-0.373c-0.045,0.005-0.139,0.044-0.168,0.157c-0.047,0.032-0.155,0.036-0.309,0.036
		c-0.023,0-0.273-0.006-0.384-0.19h-3.021c-0.142-0.19-0.557-0.17,0.108-0.168L98.984,25.001L98.984,25.001z M94.595,25.176v0.751
		c-0.083,0.008-0.175,0.041-0.184,0.191h-1.614c-0.052,0.06-0.043,0.1-0.052,0.189h-1.863c-0.039,0.005-0.155,0.132-0.378,0.132
		c-0.155,0-0.192-0.001-0.314-0.031c-0.023-0.053-0.09-0.112-0.199,0.022v-0.778c-0.011-0.157,0.174-0.067,0.196-0.192
		c0.107-0.041,0.588,0.17,0.478-0.284H94.595L94.595,25.176z M87.644,25.63h1.214c0.073,0.332,0.073,0.657,0,0.99
		c-0.267,0.007-0.575,0.195-0.728,0.195c-0.386,0-0.271-0.188-0.637-0.199v-0.573C87.513,25.78,87.635,25.715,87.644,25.63
		L87.644,25.63z M87.655,27.136h0.958v0.867h-1.15c-0.042-0.125-0.042-0.176-0.192-0.258v-0.288
		C87.471,27.383,87.521,27.265,87.655,27.136L87.655,27.136z M108.355,32.677h1.094c0.111,0.157,0.225,0.19,0.349,0.194
		c0.034,0.061,0.021,0.111,0.078,0.146c0.301,0.022,0.607,0.148,0.904,0.167c0.103,0.109,0.22,0.202,0.401,0.176v0.867h-0.838
		c-0.164-0.243-0.239-0.182-0.262-0.182c-0.155,0-0.338,0.188-0.493,0.188c-0.231,0-0.104-0.096-0.285-0.173
		c-0.181-0.015-0.425-0.015-0.628-0.021c-0.051-0.142-0.1-0.3-0.312-0.318c-0.008-0.713-0.008-0.787,0.017-0.846
		C108.438,32.853,108.496,32.786,108.355,32.677L108.355,32.677z M105.223,33.865h1.768c0.008,0.087-0.007,0.123,0.047,0.16
		c0.151,0.01,0.304,0.047,0.455,0.084l0.371,0.002l0.487,0.372c0.005,0.112,0.019,0.22,0.098,0.283
		c0.026,0.053-0.063,0.127,0.028,1.273c-0.131,0.137-0.248,0.191-0.34,0.364c-0.043,0.03-0.151,0.034-0.305,0.034
		c-0.155,0-0.191-0.001-0.305-0.025c-0.135-0.078-0.148-0.271-0.268-0.349l-0.395-0.265l-0.316-0.248l-0.037-0.262
		c-0.268-0.129-0.445-0.01-0.488-0.243c-0.043,0.008-0.135,0.039-0.145,0.187h-0.783c-0.009-0.084-0.039-0.179-0.186-0.188v-0.863
		C105.057,34.171,105.15,34.067,105.223,33.865L105.223,33.865z M108.85,34.878h1.277c0.174,0.275,0.387,0.472,0.387,0.835
		c0,0.157-0.002,0.195-0.031,0.31c-0.17,0.095-0.279,0.203-0.352,0.407h-0.899c-0.073-0.204-0.251-0.254-0.38-0.391
		c-0.004-0.83-0.002-0.902,0.021-0.962C108.932,35.054,108.988,34.985,108.85,34.878L108.85,34.878z M112.619,35.749h0.773
		c0.192,0.159,0.238,0.373,0.564,0.318c-0.032,0.216,0.121,0.333,0.301,0.42l0.35,0.187l0.611,0.08h0.396
		c0.15,0.23,0.301,0.141,0.416,0.209c0.027,0.055,0.124,0.101,0.207,0.11v0.987c-0.066,0.008-0.217,0-0.314,0.193h-0.613
		l-0.485-0.041l-0.442-0.278l-0.473-0.127l-0.441-0.243c-0.448-0.146-0.611-0.542-1.006-0.833v-0.565
		C112.486,35.902,112.609,35.837,112.619,35.749L112.619,35.749z M85.513,31.784c0.045-0.022,0.072-0.056,0.083-0.091
		c0.055,0.001,0.115,0.003,0.176,0c0.134-0.008,0.296-0.045,0.424-0.189c0.157,0.013,0.241,0.023,0.321,0.024
		c0.146,0,0.341-0.035,0.433-0.223h1.203c0.072-0.001,0.114-0.014,0.133-0.023c0.054-0.025,0.081-0.067,0.092-0.109
		c0.078-0.008,0.154-0.006,0.229-0.021c0.142-0.078,0.158-0.174,0.163-0.221c0.153-0.039,0.209-0.074,0.254-0.129h1.472
		c0.083-0.093,0.105-0.139,0.118-0.188h2.081c0.127-0.003,0.182-0.065,0.199-0.131h0.889c0.02,0.066,0.074,0.126,0.205,0.126h0.864
		c0.127,0,0.182-0.06,0.201-0.125h1.423c0.083-0.088,0.105-0.132,0.117-0.181h2.372c0.012,0.048,0.035,0.092,0.075,0.135
		l2.177,0.046l0.098,0.097c0.191,0.024,0.4,0.027,0.613,0.042c0.061,0.118,0.165,0.208,0.291,0.28l0.025,0.088
		c0.019,0.062,0.043,0.127,0.074,0.189c0.054,0.107,0.14,0.214,0.275,0.279c0.005,0.067,0.007,0.133,0.013,0.168l0.097,0.115
		c0.044,0.016,0.095,0.055,0.168,0.127l0.111,0.114l0.104,0.103c0.053,0.125,0.082,0.185,0.125,0.248
		c0.001,0.036-0.002,0.087,0.003,0.129c0.013,0.104,0.062,0.207,0.181,0.294v0.754c0.004,0.168,0.123,0.235,0.197,0.262
		c0.223,0.089,0.276,0.099,0.327,0.111l0.178,0.048c0.09,0.026,0.192,0.054,0.302,0.068c0.021,0.089,0.062,0.168,0.094,0.229
		c0.021,0.044,0.043,0.084,0.059,0.124c0.018,0.139,0.006,0.17-0.002,0.185c-0.119,0.118-0.199,0.19-0.26,0.347
		c-0.283-0.012-0.705,0.1-0.705,0.511c0,0.121,0.046,0.209,0.092,0.273l0.096,0.125l0.121,0.076
		c0.387,0.018,0.783,0.126,1.178,0.161c0.021,0.043,0.046,0.082,0.07,0.12l0.145,0.193c0.039,0.057,0.089,0.097,0.138,0.128
		c0.042,0.03,0.091,0.056,0.141,0.083c0.039,0.021,0.079,0.042,0.114,0.067l0.065,0.167c0.011,0.06,0.026,0.135,0.065,0.205
		l0.096,0.069c0.114,0.028,0.438,0.228,0.516,0.384l1.773,0.081c0.084-0.091,0.105-0.136,0.117-0.185h1.558
		c0.134,0.159,0.269,0.177,0.377,0.187c0.052,0.005,0.075,0.01,0.097,0.02c0.02,0.01,0.051,0.031,0.091,0.1l0.788,0.07v0.322
		l0.16-0.014c0.61-0.054,0.877-0.015,1.107,0.001c0.066,0.173,0.184,0.292,0.299,0.385c0.064,0.052,0.134,0.1,0.199,0.148
		c0.064,0.047,0.119,0.089,0.163,0.135l0.104,0.117c0.033,0.037,0.072,0.078,0.117,0.114c0.078,0.062,0.17,0.104,0.286,0.12
		c0.106,0.145,0.275,0.192,0.421,0.217c0.082,0.015,0.172,0.024,0.266,0.037l0.147,0.025v0.219l0.146,0.001
		c0.146,0.001,0.261,0.114,0.404,0.321c0.07,0.103,0.137,0.211,0.21,0.305c0.062,0.079,0.134,0.16,0.224,0.219
		c0.008,0.096,0.008,0.153,0.006,0.203l-0.004,0.091c0.111,0.061,0.156,0.07,0.213,0.067c0.068,0.003,0.111,0.013,0.172,0.104
		l0.855,0.066c0.127,0.144,0.246,0.224,0.382,0.288c0.119,0.056,0.251,0.1,0.425,0.178c0.016,0.098,0.052,0.19,0.081,0.267
		l0.06,0.138l0.061,0.22l0.137-0.02c0.066-0.011,0.182-0.055,0.244-0.179c0.027-0.002,0.059-0.006,0.093-0.016
		c0.089-0.026,0.171-0.081,0.243-0.184h0.867c0.264,0.292,0.412,0.338,0.918,0.425v1.153c-0.07,0.046-0.141,0.083-0.205,0.122
		c-0.082,0.048-0.165,0.104-0.244,0.182c-0.1-0.013-0.171-0.02-0.238-0.017c-0.102,0.004-0.299,0.044-0.328,0.22l-0.137,0.024
		c-0.035,0.007-0.07,0.016-0.103,0.029l-0.27,0.1l0.239,0.16c0.039,0.026,0.076,0.041,0.113,0.047v0.184l-0.094,0.028
		c-0.162,0.076-0.223,0.144-0.256,0.246h-0.826c-0.072-0.088-0.16-0.16-0.234-0.221l-0.127-0.107
		c-0.037-0.034-0.066-0.064-0.084-0.094l-0.106-0.062l-0.177-0.014l-0.098-0.012c-0.049-0.084-0.098-0.149-0.148-0.205l-0.088-0.088
		c-0.146-0.139-0.196-0.2-0.195-0.387c-0.081-0.168-0.178-0.183-0.223-0.188l0.003-0.378c-0.108-0.096-0.12-0.107-0.146-0.116
		l-0.161-0.008c-0.084,0-0.156,0.039-0.209,0.079c-0.055,0.041-0.105,0.095-0.15,0.149c-0.068,0.082-0.137,0.183-0.197,0.272h-1.203
		c-0.146-0.083-0.246-0.113-0.406-0.126c-0.003-0.065-0.008-0.136-0.02-0.207c-0.156-0.193-0.303-0.225-0.416-0.242l-0.164-0.027
		c-0.051-0.009-0.094-0.021-0.131-0.037c-0.146-0.067-0.295-0.1-0.447-0.126c-0.012-0.038-0.031-0.084-0.074-0.131l-0.115-0.047
		c-0.088,0.004-0.205,0.053-0.26,0.187h-1.051c-0.127,0.003-0.182,0.065-0.199,0.13h-1.362l-0.158-0.093
		c-0.122-0.182-0.173-0.35-0.219-0.55l-0.024-0.116h-0.343c-0.088,0.104-0.109,0.155-0.117,0.217L108.631,42v-0.12
		c-0.115-0.101-0.195-0.115-0.252-0.12c-0.062-0.285-0.228-0.314-0.325-0.299l-0.095,0.018c-0.045-0.049-0.127-0.109-0.217-0.138
		c-0.046-0.015-0.086-0.02-0.121-0.022l-0.098-0.001l-0.201-0.003c-0.052,0-0.11,0.003-0.17,0.036l-0.127,0.113l-0.137,0.147
		c-0.145,0.017-0.322,0.051-0.484,0.083l-0.246,0.046c-0.062,0.01-0.113,0.017-0.147,0.017c-0.08-0.061-0.148-0.126-0.284-0.126
		h-1.465c-0.035,0-0.072-0.014-0.129-0.047l-0.094-0.054c-0.054-0.067-0.073-0.116-0.117-0.167l-1.717-0.051
		c-0.012-0.049-0.034-0.094-0.076-0.138l-2.27-0.046c-3.896-0.731-8.704,0.096-13.416,1.41c-4.716,1.316-9.366,3.129-12.952,4.388
		c-0.673,1.184-3.941,3.381-7.444,5.695c-1.74,1.149-3.52,2.315-5.02,3.375c-1.497,1.058-2.729,2.02-3.364,2.756
		c-0.379,0.439-0.988,1.027-1.586,1.629c-0.599,0.605-1.199,1.238-1.542,1.761c-0.038,0.057-0.712,0.781-1.414,1.531l-0.957,1.028
		c-0.257,0.279-0.455,0.497-0.489,0.547c-4.615,6.911-6.665,11.931-9.615,19.757c-0.167,0.446-1.342,4.944-1.561,7.569
		c-0.4,4.777-0.769,8.431-0.658,12.056c0.11,3.635,0.704,7.238,2.23,11.904c0.1,0.306,0.859,2.48,0.944,2.789
		c0.691,2.488,2.861,7.855,4.41,10.16c1.705,3.631,6.111,9.469,8.883,12.092c3.064,2.901,6.171,5.38,7.686,6.375
		c0.186,0.037,0.288,0.083,0.44,0.158c0.302,0.465,0.773,0.832,1.459,1.14L66,149.386l0.1,0.087c0.089,0.016,0.167,0.018,0.241,0.03
		c0.107,0.069,0.14,0.106,0.173,0.144l0.085,0.094c0.056,0.059,0.088,0.104,0.104,0.15l0.117,0.096
		c0.061,0.01,0.129,0.008,0.197,0.011c0.06,0.001,0.104,0.005,0.14,0.017c0.225,0.073,0.559,0.257,0.824,0.482l0.091,0.135
		l0.064,0.103c0.024,0.034,0.056,0.073,0.097,0.104c0.109,0.085,0.23,0.108,0.334,0.116c0.076,0.007,0.156,0.005,0.234,0.009
		c0.06,0.087,0.083,0.111,0.114,0.13c0.153,0.062,0.261,0.121,0.365,0.186c0.106,0.068,0.203,0.142,0.298,0.213
		c0.178,0.134,0.373,0.277,0.613,0.343c0.073,0.073,0.149,0.113,0.221,0.14c0.041,0.016,0.08,0.026,0.117,0.037
		c0.017,0.055,0.045,0.109,0.112,0.152c0.516,0.166,1.016,0.388,1.509,0.621c0.499,0.236,0.993,0.486,1.449,0.686
		c0.094,0.085,0.125,0.125,0.143,0.153l0.096,0.071c0.482,0.104,1.016,0.326,1.563,0.572c0.553,0.244,1.107,0.506,1.62,0.677
		c0.687,0.228,1.483,0.332,2.144,0.474c0.094,0.205,0.312,0.234,0.471,0.238c0.092,0.002,0.192-0.005,0.291-0.005
		c0.094,0,0.177,0.007,0.245,0.025c0.629,0.179,1.267,0.501,1.842,0.712c0.967,0.366,2.033,0.729,3.06,0.893
		c20.018,3.168,33.141-0.027,49.38-12.219c8.518-6.395,14.367-14.321,19.556-26.451c0.152-0.357,0.309-0.718,0.441-1.068
		c0.124-0.322,0.225-0.634,0.294-0.924c0.05-0.013,0.104-0.041,0.146-0.105c0.022-0.541,0.146-1.115,0.369-1.445
		c0.129-0.904,0.41-1.828,0.694-2.61c0.149-0.425,0.251-0.956,0.314-1.34c0.085-0.466,0.253-1.299,0.309-1.702
		c0.161-1.187,0.423-2.325,0.577-3.394c0.17-1.187,0.109-1.896,0.125-2.593c0.064-0.082,0.182-0.11,0.189-0.249v-4.233
		c0.051-0.013,0.094-0.036,0.137-0.078l0.047-1.151c-0.09-0.085-0.133-0.107-0.183-0.121v-0.825
		c-0.093-0.083-0.137-0.106-0.183-0.118v-1.091c0.09-0.073,0.145-0.142,0.168-0.213c0.017-0.047,0.018-0.088,0.014-0.121
		l-0.004-0.095c0-0.032-0.004-0.078-0.029-0.126c-0.024-0.046-0.061-0.078-0.098-0.104l-0.056-0.855
		c-0.001-0.076-0.017-0.117-0.026-0.137c-0.025-0.05-0.062-0.072-0.098-0.082c-0.006-0.099-0.01-0.209-0.025-0.29
		c-0.076-0.142-0.172-0.159-0.218-0.164c-0.007-0.304-0.021-0.695-0.122-1.886l-0.009-0.12l-0.119-0.015l-0.047-0.174
		c0.007-0.045,0.011-0.091,0.013-0.133c0-0.047-0.005-0.103-0.024-0.158c-0.032-0.09-0.098-0.154-0.186-0.193v-0.736
		c-0.003-0.089-0.033-0.145-0.071-0.18c0.038-0.035,0.066-0.092,0.066-0.18v-0.951c0-0.15-0.09-0.236-0.185-0.277
		c-0.041-0.018-0.085-0.027-0.119-0.035c-0.044-0.042-0.065-0.08-0.104-0.115c-0.057-0.056-0.135-0.098-0.236-0.12
		c-0.194-0.524-0.451-1.306-0.464-1.454c0.056-0.033,0.122-0.094,0.122-0.23c0-0.159-0.062-0.253-0.186-0.288
		c-0.255-0.554-0.389-1.114-0.609-1.672c-0.008-0.02-0.012-0.054-0.006-0.113c0.004-0.066,0.016-0.133,0.02-0.197
		c0.01-0.134-0.018-0.309-0.202-0.39c-0.009-0.085-0.015-0.15-0.024-0.21l-0.125-0.165c-0.033-0.031-0.068-0.062-0.111-0.09
		c-0.067-0.044-0.146-0.076-0.247-0.095c-0.017-0.065-0.042-0.111-0.075-0.155c-0.062-0.086-0.074-0.112-0.09-0.152
		c-0.003-0.134,0.002-0.188,0.002-0.237c-0.005-0.113-0.052-0.247-0.202-0.292c-0.051-0.117-0.098-0.199-0.168-0.269
		c-0.009-0.053-0.024-0.101-0.044-0.145c-0.021-0.056-0.049-0.106-0.078-0.157c-0.053-0.093-0.086-0.158-0.094-0.242l-0.061-0.108
		c-0.559-0.4-1.154-1.745-1.43-2.388c-0.166-0.193-0.314-0.356-0.456-0.531c-0.14-0.172-0.27-0.354-0.376-0.551
		c-0.021-0.045-0.029-0.121-0.025-0.246c0.004-0.127,0.015-0.264,0.005-0.39l-0.06-0.104c-0.139-0.106-0.32-0.289-0.492-0.512
		c-0.133-0.064-0.238-0.065-0.341-0.084c-0.199-0.164-0.501-0.43-0.749-0.681l-0.021-0.112c-0.02-0.087-0.063-0.197-0.166-0.296
		c-0.043-0.127-0.064-0.2-0.092-0.264c-0.039-0.085-0.088-0.153-0.172-0.26l-0.099-0.056l-0.214-0.015
		c-0.053-0.003-0.105-0.007-0.15-0.014c-0.158-0.14-0.338-0.288-0.514-0.451c-0.186-0.17-0.359-0.351-0.492-0.55
		c-0.104-0.159-0.15-0.26-0.208-0.346c-0.065-0.095-0.142-0.17-0.274-0.253c-0.014-0.076-0.031-0.168-0.107-0.228
		c-0.088-0.034-0.141-0.04-0.192-0.046c-2.097-1.8-3.933-3.437-5.644-5.243l-0.084-0.142l-0.056-0.112
		c-0.021-0.038-0.049-0.08-0.079-0.118c-0.074-0.084-0.169-0.132-0.256-0.163c-0.076-0.029-0.16-0.048-0.244-0.073
		c-0.146-0.043-0.248-0.094-0.307-0.236c-0.012-0.146-0.016-0.214-0.026-0.275l-0.069-0.104l-0.091-0.088
		c-0.028-0.03-0.069-0.069-0.122-0.098c-0.008-0.049-0.017-0.082-0.027-0.112c-0.014-0.032-0.036-0.071-0.076-0.104
		c-0.166-0.038-0.271-0.041-0.378-0.055c-0.075-0.011-0.146-0.024-0.202-0.046c-0.005-0.035-0.012-0.072-0.023-0.106
		c-0.398-0.259-0.871-0.442-1.4-0.709c-0.035-0.096-0.076-0.189-0.127-0.264c-0.057-0.086-0.151-0.186-0.293-0.186
		c-0.137,0-0.204,0.067-0.243,0.107c-0.142,0.018-0.976-0.352-1.43-0.582c-0.077-0.04-0.18-0.079-0.296-0.12l-0.332-0.115
		c-0.107-0.041-0.201-0.081-0.268-0.121c-0.225-0.179-1.002-0.179-1.002-0.179c-0.119,0.003-0.686-0.154-0.928-0.314
		c-0.655-0.446-1.3-1.079-1.875-1.719c-0.076-0.083-0.109-0.288-0.101-0.524l0.005-0.146l-0.145-0.005
		c-0.449-0.02-1.635-1.048-1.531-1.594l0.02-0.115l-0.105-0.047c-0.048-0.021-0.104-0.031-0.145-0.036l-0.125-0.014
		c-0.086-0.012-0.131-0.032-0.154-0.058c-0.735-0.803-1.512-1.799-2.083-2.725c-0.142-0.232-0.183-0.574-0.206-0.883
		c-0.045-0.105-0.076-0.142-0.102-0.172c-0.184-0.47-0.322-0.918-0.484-1.337c-0.156-0.411-0.34-0.806-0.561-1.107v-2.149
		c-0.088-0.084-0.133-0.107-0.18-0.121v-3.243c0.049-0.011,0.092-0.035,0.134-0.077l0.044-1.018c0.043-0.09,0.078-0.164,0.119-0.282
		c0.049-0.015,0.104-0.043,0.144-0.108c0.042-0.292,0.044-0.525,0.06-0.757c0.05-0.057,0.084-0.119,0.11-0.179
		c0.024-0.059,0.044-0.123,0.063-0.187c0.09-0.094,0.15-0.219,0.18-0.303l0.111-0.09c0.04-0.033,0.072-0.057,0.107-0.079
		l0.071-0.103c0.014-0.087,0.017-0.18,0.021-0.284c0.261-0.068,0.374-0.192,0.387-0.469l0.111-0.123l0.091-0.093
		c0.072-0.106,0.078-0.136,0.08-0.158l0.017-0.15c0.456-0.594,0.78-1.139,1.031-1.472c0.085-0.108,0.194-0.213,0.317-0.33
		l0.186-0.176c0.05-0.049,0.096-0.098,0.14-0.148c0.12-0.013,0.185-0.019,0.245-0.029l0.093-0.057
		c0.021-0.028,0.052-0.062,0.095-0.101l0.141-0.124c0.101-0.087,0.219-0.194,0.295-0.319c0.021-0.035,0.037-0.072,0.051-0.108
		l0.037-0.108c0.019-0.055,0.037-0.116,0.065-0.184c0.069-0.038,0.136-0.084,0.202-0.132c0.078-0.058,0.158-0.123,0.24-0.191
		c0.163-0.132,0.322-0.26,0.491-0.351c0.289-0.152,0.615-0.31,0.944-0.482c0.333-0.175,0.673-0.369,0.982-0.596
		c0.021-0.015,0.053-0.032,0.1-0.049c0.049-0.017,0.104-0.034,0.157-0.047l0.179-0.052c0.057-0.018,0.119-0.042,0.172-0.075
		c0.127-0.078,0.365-0.228,0.613-0.358c0.26-0.135,0.493-0.229,0.63-0.229h5.287c0.087,0.047,0.13,0.08,0.173,0.112
		c0.049,0.037,0.105,0.078,0.166,0.112c0.062,0.033,0.135,0.062,0.218,0.066c1.054,0.068,2.309,0.493,3.174,1.268
		c0.376,0.333,0.773,0.596,1.18,0.827c0.401,0.229,0.812,0.428,1.22,0.633c0.809,0.409,1.582,0.833,2.232,1.567
		c0.105,0.057,0.199,0.103,0.252,0.126c0.025,0.016,0.057,0.046,0.1,0.1l0.144,0.18c0.095,0.111,0.224,0.238,0.409,0.292
		c0.014,0.041,0.039,0.097,0.104,0.14c0.307,0.03,0.546,0.184,0.796,0.399c0.124,0.108,0.241,0.221,0.351,0.323
		c0.098,0.09,0.193,0.178,0.287,0.245c0.029,0.059,0.062,0.109,0.098,0.152l0.131,0.133c0.041,0.037,0.072,0.066,0.096,0.096
		l0.066,0.179l0.1,0.012c0.074,0.009,0.137,0.042,0.205,0.1c0.031,0.028,0.065,0.062,0.1,0.1l0.111,0.121
		c0.132,0.145,0.303,0.306,0.568,0.333v0.142c0.264,0.129,0.449,0.206,0.624,0.286c0.155,0.072,0.299,0.145,0.426,0.23
		c0.024,0.068,0.063,0.125,0.095,0.17l0.102,0.14l0.115,0.073c0.096,0.008,0.184,0.038,0.289,0.075l0.17,0.054l0.127,0.028
		c0.093,0.097,0.135,0.132,0.176,0.167c0.102,0.134,0.129,0.186,0.165,0.233c0.067,0.095,0.165,0.193,0.32,0.227
		c0.075,0.146,0.153,0.226,0.236,0.296l0.126,0.103c0.034,0.031,0.068,0.06,0.107,0.106l0.023,0.247l0.076,0.115l0.104,0.094
		c0.043,0.044,0.098,0.095,0.174,0.142c0.049,0.146,0.117,0.265,0.176,0.369l0.094,0.166c0.024,0.049,0.047,0.099,0.062,0.152
		c0.066,0.104,0.119,0.131,0.166,0.146c0.153,0.318,0.354,0.753,0.817,0.832c0.065,0.119,0.095,0.166,0.128,0.21
		c0.069,0.094,0.162,0.179,0.291,0.247c0.053,0.024,0.105,0.041,0.152,0.054l0.127,0.03c0.078,0.018,0.129,0.033,0.17,0.066
		c0.139,0.115,0.236,0.315,0.311,0.501c0.076,0.111,0.169,0.13,0.209,0.139c0.039,0.001,0.057,0.043,0.067,0.093
		c0.013,0.056,0.017,0.112,0.02,0.161l0.009,0.097l0.09,0.03c0.05,0.017,0.086,0.044,0.142,0.093l0.098,0.081
		c0.128,0.223,0.261,0.428,0.396,0.616c0.16,0.222,0.348,0.45,0.491,0.625c0.017,0.02,0.033,0.054,0.056,0.115l0.068,0.196
		c0.026,0.069,0.06,0.145,0.106,0.211c0.031,0.044,0.073,0.087,0.127,0.119c0.029,0.104,0.088,0.206,0.148,0.296
		c0.078,0.115,0.178,0.238,0.27,0.366c0.19,0.257,0.318,0.487,0.285,0.707l-0.021,0.127l0.123,0.038
		c0.225,0.067,0.338,0.207,0.438,0.423c0.054,0.115,0.101,0.243,0.155,0.379c0.056,0.144,0.121,0.295,0.207,0.448
		c0.07,0.129,0.155,0.258,0.235,0.384c0.075,0.117,0.146,0.231,0.192,0.339c0.08,0.214,0.209,0.429,0.332,0.623
		c0.121,0.192,0.246,0.375,0.324,0.536c1.304,2.664,3.045,5.226,4.317,7.797c0.024,0.049,0.058,0.086,0.087,0.115l0.09,0.079
		c0.057,0.05,0.111,0.103,0.156,0.187c0.29,0.523,0.579,0.992,0.842,1.465c0.258,0.465,0.489,0.935,0.666,1.466
		c0.066,0.1,0.117,0.128,0.163,0.143c0.028,0.094,0.103,0.245,0.169,0.378l0.094,0.188c0.025,0.055,0.049,0.11,0.065,0.164
		c0.385,0.335,1.02,1.365,1.046,1.983c0.074,0.142,0.127,0.166,0.17,0.18c-0.012,0.034,0.027,0.168,0.066,0.301
		c0.036,0.127,0.065,0.236,0.07,0.337c0.054,0.11,0.076,0.13,0.098,0.144c0.206,0.405,0.385,0.829,0.554,1.239
		c0.321,0.754,0.574,1.693,0.708,2.282c0.363,0.365,0.599,1.074,0.555,1.468l0.031,0.107c0.045,0.058,0.098,0.081,0.141,0.094
		c0.027,0.148,0.13,0.313,0.227,0.463c0.047,0.072,0.092,0.142,0.137,0.22c0.041,0.074,0.08,0.154,0.111,0.246
		c0.668,1.969,1.168,4.072,1.662,6.087c0.01,0.047,0.014,0.098,0.014,0.155l-0.007,0.184c-0.007,0.126-0.015,0.278,0.034,0.425
		c0.023,0.081,0.065,0.186,0.104,0.292c0.036,0.108,0.06,0.188,0.06,0.239l-0.105,0.072l-0.094,0.043l0.011,0.104
		c0.011,0.114,0.116,0.164,0.148,0.177c0.067,0.55,0.276,1.359,0.476,2.07l0.299,1.033c0.084,0.298,0.128,0.481,0.128,0.531v1.431
		c0,0.134,0.062,0.202,0.102,0.245c0.022,0.077,0.013,0.093-0.015,0.138l-0.055,0.098c-0.02,0.044-0.032,0.095-0.032,0.155
		c0,0.136,0.063,0.205,0.112,0.248c0.018,1.399-0.051,1.481-0.051,1.638c0,0.125,0.05,0.211,0.135,0.271
		c0.034,0.023,0.068,0.04,0.098,0.052l0.008,5.048c-0.144,0.081-0.178,0.181-0.178,0.288c0,0.219,0.072,0.296,0.168,0.349
		l0.018,0.092c0,0.044-0.004,0.071-0.018,0.094c-0.012,0.024-0.039,0.063-0.111,0.114l-0.062,1.477l0.133,0.014
		c0.051,0.038,0.055,0.062,0.057,0.104l0.002,0.147c0,0.108,0.002,0.149-0.006,0.201c-0.039,0.013-0.092,0.038-0.136,0.097
		c-0.042,0.278-0.044,0.479-0.058,0.676c-0.086,0.045-0.111,0.152-0.115,0.226v1.395c-0.049,0.011-0.094,0.036-0.137,0.077
		l-0.041,0.134c0.005,0.036,0.304,1.626,0.311,1.944c-0.072,0.061-0.116,0.142-0.145,0.217c-0.037,0.104-0.059,0.227-0.074,0.339
		l-0.037,0.33c-0.014,0.104-0.028,0.169-0.042,0.202c-0.04,0.085-0.101,0.178-0.166,0.278c-0.071,0.11-0.15,0.228-0.224,0.354
		c-0.133,0.235-0.254,0.518-0.245,0.831c-0.073,0.062-0.156,0.134-0.226,0.209c-0.079,0.088-0.176,0.216-0.176,0.356v1.492
		c0,0.434-0.021,0.609-0.062,0.873c-0.041,0.273-0.104,0.637-0.184,1.45c-0.046,0.474-0.168,0.938-0.304,1.405
		c-0.132,0.455-0.275,0.913-0.382,1.386c-0.037,0.015-0.092,0.038-0.135,0.099c-0.104,0.816-0.236,1.521-0.373,2.256
		c-0.016,0.073-0.068,0.176-0.142,0.305l-0.103,0.186c-0.033,0.061-0.066,0.127-0.085,0.189c-0.034,0.113-0.036,0.243-0.038,0.357
		c0,0.084,0.002,0.173-0.002,0.262c-0.035,0.014-0.082,0.039-0.121,0.09c-0.043,0.232-0.113,0.428-0.18,0.573
		c-0.348,0.745-0.398,1.603-0.418,2.355c-0.034,0.013-0.076,0.035-0.112,0.081l-0.028,0.133l-0.3,0.16
		c-0.108,0.058-0.222,0.111-0.317,0.163c-0.053,0.028-0.1,0.056-0.138,0.082s-0.082,0.06-0.112,0.103
		c-0.038,0.158-0.041,0.288-0.053,0.42c-0.088,0.043-0.115,0.152-0.116,0.227v1.332c-0.056,0.014-0.101,0.044-0.138,0.094
		l-0.045,0.292c-0.003,0.04,0,0.078-0.005,0.114c-0.04,0.016-0.093,0.041-0.138,0.1c-0.047,0.144-0.047,0.243-0.043,0.33
		c0.002,0.08,0.008,0.165,0.008,0.244c-0.002,0.158-0.035,0.183-0.082,0.193l-0.112,0.029v1.04l-0.103,0.114
		c-0.119,0.001-0.188-0.001-0.253,0.009c-0.136,0.02-0.263,0.093-0.31,0.255h-1.577l-0.038,0.09
		c-0.033,0.075-0.049,0.146-0.055,0.217l-0.191,0.087l-0.096,0.009l-0.031,0.093c-0.01,0.032-0.024,0.062-0.039,0.091l-0.059,0.104
		c-0.033,0.059-0.07,0.129-0.094,0.214c-0.141,0.086-0.259,0.195-0.31,0.361c-0.029,0.002-0.06,0.01-0.091,0.023
		s-0.068,0.038-0.102,0.079c-0.042,0.157-0.065,0.24-0.093,0.323c-0.03,0.088-0.063,0.174-0.097,0.268
		c-0.066,0.18-0.134,0.38-0.178,0.646c-0.062,0.047-0.103,0.109-0.133,0.164c-0.021,0.039-0.04,0.082-0.057,0.127l-0.047,0.122
		c-0.033,0.085-0.059,0.149-0.085,0.196c-0.075,0.326-0.052,0.366-0.026,0.418c0.029,0.059,0.049,0.121,0.075,0.182
		c0.056,0.129,0.139,0.273,0.326,0.365l0.458,0.915c-0.139,0.241-0.239,0.479-0.327,0.708c-0.091,0.24-0.171,0.477-0.271,0.709
		c-0.088,0.098-0.143,0.217-0.168,0.316c-0.115,0.056-0.206,0.132-0.257,0.229c-0.026,0.016-0.073,0.041-0.112,0.069
		c-0.072,0.054-0.145,0.133-0.199,0.253c-0.214,0.146-0.436,0.316-0.635,0.473c-0.17,0.037-0.341,0.072-0.489,0.117
		c-0.14,0.042-0.288,0.103-0.389,0.205c-0.224,0.078-0.353,0.172-0.464,0.283l-0.043,0.094c-0.012,0.162-0.012,0.391-0.033,0.557
		c-0.08,0.104-0.186,0.23-0.273,0.35c-0.053,0.07-0.1,0.142-0.135,0.203c-0.031,0.06-0.066,0.138-0.068,0.216v1.694
		c-0.134,0.115-0.182,0.236-0.201,0.355c-0.086,0.08-0.215,0.198-0.336,0.327c-0.105,0.113-0.223,0.252-0.289,0.389h-0.75
		c-0.084,0.045-0.123,0.083-0.152,0.116l-0.078,0.096c-0.051,0.062-0.083,0.091-0.119,0.104l-0.096,0.115
		c-0.008,0.04-0.008,0.135-0.025,0.229c-0.219,0.182-0.346,0.371-0.376,0.611c-0.036,0.016-0.081,0.041-0.12,0.092l-0.045,0.111
		c-0.076,0.141-0.123,0.232-0.123,0.351v0.888c-0.178,0.174-0.402,0.344-0.66,0.506l-0.068,0.111
		c-0.008,0.087-0.051,0.226-0.135,0.346l-0.123,0.074c-0.189,0.121-0.274,0.232-0.303,0.426l-0.105,0.02
		c-0.084,0.01-0.166,0.018-0.238,0.035c-0.146,0.035-0.277,0.121-0.295,0.295c-0.17,0.007-0.348,0.01-0.484,0.02
		c-0.126,0.068-0.149,0.109-0.164,0.145l-0.112-0.018c-0.04-0.003-0.078-0.006-0.114-0.003c-0.183,0.009-0.309,0.117-0.304,0.324
		c-0.296,0.095-0.47,0.299-0.47,0.503l0.01,0.161c0.015,0.066,0.051,0.114,0.104,0.146l0.103,0.049l0.09,0.053v0.655
		c-0.051,0.068-0.109,0.13-0.178,0.188c-0.08,0.07-0.165,0.131-0.244,0.188l-0.057,0.09l-0.018,0.129
		c-0.049,0.005-0.137,0.139-0.184,0.229c-0.048,0.092-0.09,0.205-0.127,0.313c-0.279,0.216-0.561,0.503-0.823,0.835
		c-0.298,0.019-0.788,0.127-1.017,0.332l-0.214,0.016l-0.098,0.009l-0.03,0.092c-0.074,0.063-0.102,0.067-0.131,0.073l-0.13,0.019
		l-0.101,0.075l-0.094,0.105c-0.043,0.043-0.093,0.098-0.14,0.17l-0.101,0.018c-0.061,0.011-0.135,0.027-0.206,0.069
		c-0.102,0.133-0.124,0.21-0.134,0.284l-0.012,0.098c-0.083,0.027-0.15,0.07-0.201,0.104c-0.032,0.021-0.066,0.042-0.098,0.059
		l-0.173,0.025l-0.026,0.107c-0.02,0.083-0.066,0.168-0.137,0.271l-0.197,0.273c-0.106,0.012-0.206,0.048-0.256,0.158
		c-0.023,0.051-0.029,0.105-0.033,0.144c-0.034,0.11-0.07,0.138-0.117,0.171l-0.094,0.066l-0.101,0.076
		c-0.11,0.1-0.197,0.229-0.194,0.412c-0.146,0.006-0.279,0.008-0.412,0.018c-0.139,0.077-0.162,0.133-0.176,0.17l-0.191,0.017
		l-0.113,0.073c-0.225,0.393-0.516,0.81-0.816,1.234c-0.127,0.002-0.281,0.003-0.432,0.016c-0.136,0.076-0.16,0.131-0.173,0.168
		c-0.058-0.004-0.196,0.061-0.311,0.129c-0.112,0.064-0.214,0.143-0.295,0.199l-0.062,0.143c0.053,0.367-0.381,1.025-0.645,1.283
		c-0.086,0.09-0.143,0.182-0.178,0.29c-0.18,0.095-0.299,0.229-0.396,0.354l-0.142,0.194c-0.03,0.041-0.061,0.076-0.092,0.107
		c-0.33,0.005-0.586,0.161-0.8,0.362c-0.112,0.105-0.214,0.226-0.313,0.344c-0.083,0.103-0.166,0.207-0.253,0.308
		c-0.134,0.017-0.259,0.053-0.386,0.085c-0.135,0.036-0.256,0.066-0.383,0.071l-0.088,0.002c-0.133,0.264-0.191,0.315-0.396,0.31
		l-0.113-0.001l-0.031,0.109c-0.053,0.184-0.178,0.292-0.354,0.398c-0.093,0.055-0.189,0.105-0.282,0.162
		c-0.088,0.053-0.178,0.116-0.257,0.196c-0.062,0.026-0.106,0.052-0.15,0.083c-0.035,0.025-0.064,0.056-0.126,0.094
		c-0.05,0.004-0.092,0.014-0.139,0.037c-0.087,0.04-0.171,0.115-0.229,0.246c-0.07,0.048-0.174,0.131-0.234,0.23
		c-0.088,0.029-0.193,0.081-0.252,0.193c-0.174,0.064-0.281,0.129-0.376,0.203c-0.083,0.066-0.153,0.141-0.269,0.229
		c-0.159,0.057-0.361,0.137-0.531,0.25c-0.166,0.11-0.326,0.264-0.381,0.478c-0.058,0.036-0.099,0.061-0.14,0.093
		c-0.073,0.059-0.148,0.138-0.195,0.26c-0.063,0.002-0.126,0.003-0.155,0.01l-0.098,0.014l-0.023,0.096
		c-0.093,0.08-0.156,0.103-0.236,0.129c-0.084,0.03-0.173,0.059-0.256,0.096c-0.072,0.036-0.152,0.082-0.216,0.15
		c-0.097,0.031-0.212,0.064-0.323,0.109c-0.115,0.047-0.242,0.108-0.344,0.198l-0.15,0.015l-0.268,0.016
		c-0.23,0.113-0.384,0.254-0.531,0.404c-0.143,0.146-0.286,0.313-0.437,0.475c-0.124,0.131-0.535,0.279-0.88,0.313l-0.102,0.056
		c-0.086,0.113-0.177,0.232-0.271,0.345c-0.083,0.1-0.168,0.188-0.253,0.259l-0.14,0.006c-0.089,0.002-0.191,0.006-0.291,0.02
		c-0.162,0.021-0.396,0.083-0.48,0.295l-0.102,0.01l-0.208,0.016l-0.116,0.078l-0.082,0.094l-0.12,0.018l-0.104,0.076
		c-0.039,0.072-0.131,0.168-0.217,0.219c-0.062,0.037-0.139,0.064-0.231,0.091c-0.097,0.027-0.196,0.053-0.288,0.087
		c-0.174,0.062-0.348,0.168-0.422,0.394c-0.158,0.009-0.305,0.03-0.455,0.11c-0.075,0.005-0.124,0.006-0.178,0.015
		c-0.105,0.019-0.234,0.062-0.343,0.179c-0.169,0.043-0.427,0.119-0.659,0.209c-0.131,0.05-0.254,0.104-0.35,0.154
		c-0.049,0.027-0.096,0.056-0.134,0.086c-0.179,0.076-0.328,0.1-0.465,0.144c-0.146,0.047-0.308,0.127-0.403,0.283
		c-0.117,0.007-0.188,0.011-0.251,0.022c-0.102,0.018-0.265,0.078-0.294,0.234l-0.331,0.021l-0.102,0.006l-0.032,0.096l-0.109,0.076
		l-0.137,0.084c-0.031,0.023-0.062,0.051-0.09,0.084c-0.293,0.032-0.633,0.091-0.916,0.161l-0.093,0.073l-0.103,0.15
		c-0.023,0.035-0.046,0.078-0.064,0.125c-0.207-0.007-0.363,0.023-0.504,0.089c-0.081,0.038-0.152,0.088-0.221,0.14l-0.184,0.148
		c-0.061,0.012-0.131,0.018-0.203,0.023c-0.094,0.007-0.19,0.013-0.285,0.023c-0.168,0.02-0.372,0.062-0.509,0.203l-0.144,0.014
		l-0.265,0.018c-0.138,0.076-0.161,0.13-0.175,0.168c-0.013-0.01-0.057,0-0.105,0.003l-0.207,0.014l-0.121,0.084
		c-0.111,0.077-0.176,0.106-0.252,0.132c-0.149,0.051-0.318,0.088-0.437,0.102l-0.09,0.043c-0.106,0.11-0.134,0.143-0.159,0.182
		c-0.043,0.062-0.074,0.133-0.098,0.224l-0.113,0.019c-0.084,0.012-0.167,0.02-0.238,0.035c-0.141,0.034-0.266,0.115-0.294,0.273
		c-0.114,0.004-0.209,0.042-0.292,0.101c-0.057,0.04-0.105,0.091-0.145,0.137l-0.145,0.08c-0.074-0.009-0.158-0.019-0.238-0.019
		c-0.148,0-0.344,0.038-0.432,0.229h-1.141c-0.07,0.002-0.123,0.039-0.154,0.068c-0.035,0.033-0.062,0.072-0.082,0.109
		c-0.043,0.074-0.08,0.168-0.113,0.26l-0.092,0.271l-0.041,0.112c-0.127,0.018-0.258,0.051-0.395,0.082
		c-0.15,0.035-0.309,0.068-0.48,0.074c-0.162,0.094-0.176,0.182-0.182,0.23c-0.252,0.006-0.51-0.018-0.738-0.008
		c-0.266,0.01-0.543,0.068-0.721,0.314l-0.135,0.014l-0.264,0.016c-0.139,0.078-0.162,0.131-0.176,0.168
		c-0.15,0.014-0.389,0.031-0.617,0.068c-0.222,0.032-0.445,0.085-0.654,0.188h-1.33c-0.078,0.113-0.113,0.149-0.148,0.178
		c-0.039,0.033-0.082,0.061-0.123,0.087c-0.084,0.054-0.18,0.117-0.278,0.239h-1.783c-0.039,0-0.091,0.002-0.136,0.022
		s-0.073,0.056-0.085,0.093c-0.153,0.013-0.331,0.016-0.463,0.025l-0.097,0.045c-0.104,0.109-0.133,0.142-0.16,0.182
		c-0.029,0.046-0.057,0.099-0.078,0.161l-1.873-0.507c-0.131,0.184-0.17,0.201-0.207,0.215c-0.033,0.016-0.068,0.028-0.109,0.049
		c-0.034,0.02-0.072,0.043-0.111,0.074h-1.141c-0.049-0.055-0.098-0.115-0.151-0.166c-0.058-0.06-0.13-0.117-0.222-0.15
		l-0.077-0.143c-0.042-0.066-0.075-0.123-0.095-0.183l-0.031-0.092l-0.096-0.009l-0.104-0.052c-0.059-0.034-0.15-0.083-0.269-0.083
		h-4.302c-0.125,0-0.205,0.057-0.256,0.096c-0.178,0.109-0.215,0.156-0.23,0.209h-0.831c-0.012-0.048-0.035-0.092-0.076-0.135
		l-0.834-0.047c-0.171,0.002-0.236,0.126-0.262,0.197c-0.099,0.334-0.099,0.553-0.119,0.721c-0.142,0.136-0.296,0.293-0.42,0.466
		l-0.921,0.001c-0.136-0.103-0.212-0.17-0.276-0.248c-0.125-0.061-0.212-0.061-0.31-0.078c-0.071-0.087-0.108-0.115-0.14-0.139
		l-0.09-0.07l-0.063-0.123c-0.009-0.054-0.022-0.127-0.056-0.201l-0.038-0.088h-0.474l-0.037,0.096
		c-0.1,0.273-0.212,0.559-0.329,0.854l-0.273-0.019c-0.123-0.005-0.273,0.013-0.384,0.141L93.389,175
		c-0.022-0.065-0.075-0.125-0.203-0.125h-2.235l-0.093-0.105c-0.137-0.018-0.28-0.018-0.431-0.035
		c-0.013-0.037-0.031-0.082-0.072-0.129l-2.76-0.553c-0.012-0.057-0.035-0.106-0.08-0.154l-1.65-0.046
		c-0.018-0.063-0.075-0.124-0.202-0.124H84.97l-0.095-0.109c-0.265-0.016-0.492-0.017-0.715-0.038
		c-0.132-0.121-0.286-0.162-0.422-0.175c-0.071-0.008-0.142-0.006-0.206-0.004c-0.001-0.145-0.038-0.227-0.123-0.268
		c-0.065-0.029-0.133-0.024-0.17-0.02l-0.106,0.016c-0.026-0.043-0.056-0.076-0.08-0.101l-0.081-0.092l-0.125-0.079
		c-0.141-0.006-0.322-0.039-0.486-0.07l-0.238-0.045c-0.081-0.014-0.146-0.021-0.192-0.021c-0.056,0-0.112,0.012-0.16,0.023
		l-0.137,0.047l-0.116,0.04c-0.113,0.014-0.163,0.007-0.221-0.003l-0.235-0.045c-0.146-0.03-0.302-0.061-0.44-0.082
		c-0.015-0.039-0.04-0.084-0.093-0.125c-0.116-0.039-0.203-0.034-0.293-0.055c-0.065-0.014-0.124-0.043-0.167-0.112l-3.239-0.068
		l-0.095-0.107c-0.263-0.015-0.489-0.016-0.71-0.038l-0.123-0.111c-0.05-0.045-0.075-0.07-0.086-0.096l-0.101-0.073
		c-0.03-0.007-0.079-0.011-0.143-0.013l-0.051-0.256h-1.167c-0.11,0.004-2.035-0.64-3.096-1.2c-0.162-0.085-0.315-0.235-0.491-0.407
		c-0.087-0.086-0.178-0.172-0.27-0.25c-0.07-0.059-0.144-0.117-0.223-0.166v-1.295c-0.127-0.146-0.228-0.193-0.324-0.222
		c-0.065-0.019-0.134-0.028-0.208-0.049l-0.129-0.124c-0.05-0.043-0.074-0.068-0.084-0.09l-0.122-0.08
		c-0.153-0.01-0.368-0.01-0.538-0.029c-0.108-0.105-0.227-0.15-0.327-0.17c-0.051-0.011-0.1-0.014-0.141-0.018
		c-0.116-0.113-0.228-0.174-0.356-0.2c-0.05-0.01-0.101-0.015-0.157-0.022c-0.087-0.051-0.093-0.084-0.106-0.114
		c-0.013-0.031-0.035-0.071-0.075-0.104c-0.214-0.045-0.412-0.05-0.582-0.089c-0.171-0.04-0.228-0.098-0.237-0.154l-0.019-0.124
		h-0.54v0.542l-0.135,0.066c-0.076,0.041-0.156,0.09-0.23,0.133c-0.068,0.043-0.136,0.083-0.194,0.113
		c-0.24,0.033-0.301-0.028-0.908-0.029l-0.12-0.022c-6.3-2.765-16.757-12.396-20.003-15.676
		c-13.217-13.354-18.638-31.143-20.114-48.423c-0.57-3.536-0.244-7.772,0.415-12.005c0.653-4.218,1.634-8.425,2.372-11.933
		c0.533-0.487,1.488-1.479,1.727-2.241l-0.857-1.434c0.229-1.089,0.659-2.302,1.136-3.503c0.482-1.216,1.017-2.421,1.451-3.481
		l1.578-1.058c0.237-1.273,0.747-2.551,1.397-3.603c1.51-0.623,2.539-1.923,3.439-3.321c0.455-0.704,0.881-1.44,1.324-2.141
		c0.44-0.696,0.893-1.349,1.402-1.896c0.09-0.153,0.146-0.287,0.187-0.438c0.055-0.059,0.092-0.125,0.12-0.189
		c0.021-0.05,0.039-0.104,0.055-0.159c0.13-0.062,0.198-0.169,0.237-0.263c0.021-0.049,0.038-0.1,0.05-0.143
		c0.11-0.133,0.208-0.254,0.218-0.433c0.07-0.026,0.138-0.053,0.2-0.086c0.101-0.052,0.198-0.123,0.292-0.229
		c0.052-0.175,0.054-0.284,0.067-0.391c0.187-0.197,0.354-0.525,0.503-0.824c0.082-0.161,0.163-0.324,0.244-0.47
		c0.082-0.145,0.157-0.261,0.23-0.341c0.056-0.177,0.058-0.286,0.07-0.392c0.092-0.084,0.211-0.15,0.353-0.202
		c0.164-0.062,0.344-0.104,0.522-0.147c0.345-0.084,0.752-0.185,0.975-0.492c0.194-0.165,0.319-0.347,0.416-0.545
		c0.082-0.173,0.146-0.362,0.212-0.571c0.056-0.024,0.106-0.058,0.146-0.086l0.141-0.105c0.073-0.105,0.076-0.135,0.081-0.158
		l0.016-0.181c0.048-0.039,0.088-0.079,0.125-0.12l0.134-0.159c0.084-0.1,0.159-0.173,0.266-0.216
		c0.289-0.375,0.518-0.723,0.716-1.143c0.128,0.008,0.236-0.042,0.323-0.129c0.104-0.102,0.178-0.255,0.236-0.395
		c0.058-0.14,0.109-0.292,0.168-0.423c0.05-0.111,0.092-0.18,0.129-0.215c0.1-0.019,0.178-0.063,0.244-0.115
		c0.036-0.03,0.068-0.062,0.098-0.092l0.084-0.09c0.045-0.045,0.068-0.1,0.081-0.143c0.012-0.037,0.02-0.078,0.028-0.122
		c0.014-0.078,0.029-0.129,0.061-0.168c0.056-0.072,0.139-0.148,0.229-0.224c0.09-0.077,0.184-0.147,0.261-0.206
		c0.066-0.12,0.071-0.183,0.074-0.233l0.003-0.101c0.498-0.233,1.015-0.587,1.365-0.746c0.099-0.112,0.116-0.172,0.129-0.219
		l0.034-0.141c0.027-0.086,0.06-0.143,0.12-0.177c0.077-0.047,0.22-0.109,0.386-0.153c0.134-0.037,0.196-0.132,0.232-0.206
		l0.044-0.098c0.16-0.178,0.291-0.314,0.43-0.442c0.145-0.136,0.266-0.231,0.345-0.26c0.187-0.211,0.395-0.378,0.624-0.548
		c0.114-0.085,0.227-0.169,0.329-0.248c0.102-0.08,0.199-0.165,0.273-0.246c0.22-0.25,0.565-0.557,0.963-0.885
		c0.398-0.328,0.839-0.669,1.243-0.987c0.068-0.053,0.125-0.116,0.176-0.18c0.049-0.06,0.093-0.125,0.14-0.191
		c0.09-0.128,0.163-0.223,0.244-0.275c0.078-0.05,0.156-0.115,0.23-0.182l0.224-0.213c0.153-0.146,0.3-0.278,0.447-0.354
		c0.28-0.142,0.623-0.27,0.872-0.42c0.087-0.057,0.109-0.154,0.117-0.195l0.14-0.097c0.067-0.035,0.121-0.06,0.181-0.067
		c0.14-0.087,0.204-0.102,0.328-0.1c0.14,0.001,0.309,0.019,0.53-0.007l0.108-0.071c0.18-0.294,0.449-0.599,0.784-0.559l0.101,0.011
		l0.046-0.089c0.25-0.473,1.714-1.259,2.203-1.44c0.117-0.071,0.134-0.168,0.141-0.208c0.597-0.434,1.174-0.845,1.795-1.211
		c0.08-0.05,0.28-0.127,0.439-0.146c0.122-0.062,0.163-0.126,0.186-0.168c0.109-0.1,0.19-0.138,0.274-0.182l0.308-0.162
		c0.098-0.051,0.193-0.097,0.276-0.132c0.085-0.035,0.142-0.047,0.173-0.047c0.145-0.067,0.172-0.123,0.185-0.17
		c0.445-0.284,0.939-0.604,1.446-0.871c0.526-0.275,1.048-0.487,1.53-0.532c0.11-0.007,0.18-0.063,0.228-0.116l0.091-0.108
		c0.106-0.011,0.18-0.015,0.244-0.026c0.141-0.079,0.157-0.175,0.164-0.221c0.104-0.043,0.156-0.061,0.21-0.079
		c0.103-0.036,0.189-0.065,0.284-0.073l0.119-0.079c0.188-0.364,0.808-0.61,1.272-0.746c0.125-0.075,0.144-0.173,0.149-0.211
		c0.465-0.198,1.127-0.427,1.668-0.473l0.116-0.075c0.022-0.04,0.046-0.073,0.076-0.11l0.087-0.113
		c0.286-0.104,0.573-0.178,0.863-0.239c0.308-0.064,0.617-0.113,0.928-0.164c0.628-0.103,1.274-0.217,1.924-0.491
		c0.06-0.025,0.12-0.055,0.185-0.091l0.186-0.107c0.12-0.07,0.251-0.146,0.385-0.203c0.883-0.375,1.876-0.744,2.875-1.065
		c0.06-0.02,0.146-0.025,0.259-0.025c0.116,0,0.234,0.003,0.329-0.009c0.12-0.061,0.149-0.107,0.164-0.151
		c0.183-0.015,0.356-0.046,0.535-0.075c0.197-0.032,0.399-0.06,0.626-0.055l0.149,0.002v-0.192h1.356v0.567
		c-0.054,0.036-0.086,0.06-0.115,0.09c-0.03,0.031-0.05,0.065-0.062,0.102c-0.345,0.02-0.67,0.071-0.991,0.083
		c-0.125,0.064-0.148,0.104-0.16,0.135l-0.036,0.138c-0.102-0.04-0.293-0.042-0.461-0.004c-0.172,0.038-0.33,0.114-0.458,0.281h-1.1
		c-0.153,0.159-0.275,0.256-0.403,0.352c-0.133,0.097-0.264,0.187-0.382,0.283c-0.074,0.06-0.173,0.123-0.272,0.123h-0.856
		c-0.102,0.11-0.116,0.189-0.122,0.239c-0.115,0.068-0.19,0.127-0.25,0.184l-0.09,0.087l-0.33,0.142l0.239,0.158
		c0.038,0.025,0.077,0.036,0.117,0.042c0.031,0.004,0.077,0.008,0.145,0.01l0.556,0.007c0.021,0.059,0.038,0.09,0.062,0.116
		c0.022,0.027,0.065,0.061,0.127,0.068l0.106,0.011l0.044-0.097c0.034-0.076,0.047-0.147,0.053-0.218l0.008-0.117
		c0.391-0.176,1.12-0.338,1.238-0.338c0.115,0,0.158,0,0.222,0.009c0.041,0.05,0.067,0.079,0.096,0.105
		c0.032,0.029,0.069,0.051,0.111,0.067v0.623c-0.121,0.068-0.155,0.106-0.188,0.154h-1.475c-0.083,0.117-0.112,0.152-0.14,0.179
		c-0.147,0.163-0.161,0.249-0.161,0.381c-0.008,0.05-0.01,0.093,0.003,0.143c0.023,0.084,0.077,0.167,0.176,0.237v0.725
		c-0.062,0.028-0.121,0.075-0.155,0.154h-0.933c-0.035-0.062-0.082-0.104-0.117-0.134l-0.095-0.087l-1.222-0.086
		c-0.037,0.001-0.091,0.003-0.134,0.024l-0.163-0.128c-0.064-0.06-0.149-0.132-0.239-0.165c-0.096-0.035-0.203-0.029-0.289,0.048
		c-0.127,0.002-0.193,0.001-0.261,0.007c-0.132,0.011-0.296,0.048-0.422,0.181c-0.064,0.011-0.124,0.027-0.178,0.045
		c-0.068,0.023-0.13,0.052-0.195,0.079c-0.121,0.051-0.217,0.091-0.333,0.094l-0.103,0.003l-0.031,0.098
		c-0.011,0.032-0.023,0.061-0.038,0.09l-0.06,0.104c-0.031,0.056-0.065,0.122-0.089,0.201c-0.038,0.014-0.09,0.04-0.134,0.098
		l-0.047,0.292l-0.013,0.143c-0.146,0.136-0.263,0.262-0.356,0.481c-0.109,0.078-0.152,0.121-0.181,0.179
		c-0.051,0.023-0.09,0.048-0.126,0.075c-0.035,0.024-0.073,0.054-0.132,0.092c-0.053,0.008-0.104,0.02-0.156,0.035l-0.164,0.053
		c-0.105,0.037-0.192,0.064-0.284,0.068l-0.125,0.079l-0.083,0.092c-0.03,0.031-0.073,0.075-0.102,0.134
		c-0.053,0.024-0.089,0.048-0.127,0.075c-0.036,0.025-0.074,0.056-0.138,0.097c-0.024,0.008-0.068,0.025-0.118,0.049
		c-0.054,0.027-0.125,0.067-0.188,0.123c-0.188-0.007-0.337,0.068-0.452,0.177c-0.063,0.06-0.117,0.128-0.164,0.195
		c-0.037,0.056-0.071,0.113-0.106,0.171c-0.083,0.053-0.156,0.112-0.226,0.171c-0.075,0.064-0.143,0.131-0.211,0.196
		c-0.127,0.121-0.238,0.223-0.375,0.294c-0.054,0.008-0.111,0.02-0.168,0.035l-0.189,0.052c-0.125,0.035-0.246,0.065-0.375,0.07
		l-0.125,0.078l-0.083,0.093l-0.118,0.019l-0.106,0.076c-0.012,0.025-0.039,0.056-0.084,0.097l-0.132,0.115l-0.223,0.025
		l-0.112,0.07c-0.076,0.125-0.183,0.232-0.308,0.355c-0.063,0.062-0.125,0.124-0.184,0.19c-0.062,0.068-0.122,0.142-0.171,0.225
		l-0.066,0.108l0.096,0.082c0.052,0.044,0.105,0.062,0.166,0.068c0.04,0.004,0.092,0.002,0.175,0.002
		c0.095,0,0.192-0.019,0.278-0.037c0.083-0.018,0.169-0.039,0.255-0.048c0.149-0.08,0.166-0.18,0.171-0.216
		c0.077-0.137,0.172-0.202,0.283-0.275l0.191-0.12c0.052-0.034,0.102-0.071,0.15-0.108c0.051-0.006,0.103-0.016,0.157-0.029
		l0.193-0.051c0.129-0.036,0.25-0.068,0.379-0.076l0.098-0.005l0.032-0.094c0.014-0.04,0.052-0.092,0.126-0.167l0.114-0.115
		l0.082-0.087c0.409-0.028,0.817-0.143,1.221-0.164c0.161-0.083,0.176-0.178,0.179-0.224l0.105-0.032
		c0.044-0.011,0.116-0.031,0.17-0.082l0.128-0.092l0.173-0.058c0.108-0.039,0.196-0.067,0.291-0.076l0.112-0.068
		c0.039-0.061,0.084-0.118,0.138-0.177l0.178-0.185c0.11-0.114,0.235-0.247,0.341-0.417c0.283-0.035,0.569-0.141,0.9-0.161
		c0.159-0.081,0.174-0.178,0.178-0.222c0.03-0.005,0.062-0.02,0.09-0.025c0.068-0.014,0.135-0.032,0.205-0.051l0.196-0.049
		c0.062-0.013,0.127-0.024,0.195-0.029c0.128-0.061,0.156-0.109,0.171-0.152l0.194-0.012c0.101-0.008,0.196-0.018,0.285-0.037
		c0.153-0.034,0.295-0.101,0.417-0.229l0.733,0.471c0.162-0.002,0.252-0.051,0.314-0.088l0.123-0.064
		c0.11-0.058,0.14-0.106,0.155-0.153c0.04-0.001,0.086-0.006,0.132-0.013c0.103-0.018,0.234-0.061,0.333-0.173
		c0.088,0.011,0.16,0.016,0.227,0.011c0.066-0.003,0.16-0.015,0.235-0.072c0.047-0.038,0.075-0.083,0.088-0.132l0.156-0.03
		c0.083-0.02,0.165-0.048,0.25-0.094c0.109,0.012,0.176,0.024,0.241,0.026c0.129,0.004,0.309-0.031,0.377-0.215
		c0.164-0.04,0.256-0.092,0.34-0.193c0.076-0.02,0.198-0.067,0.291-0.192h1.039c0.069-0.001,0.109-0.013,0.13-0.021
		c0.055-0.026,0.083-0.069,0.093-0.111c0.325-0.023,0.641-0.125,0.953-0.145c0.118-0.053,0.143-0.095,0.157-0.127
		c0.013-0.032,0.02-0.064,0.023-0.088c0.038-0.004,0.075-0.014,0.111-0.023c0.066-0.016,0.14-0.048,0.199-0.112h0.921
		c0.084-0.093,0.106-0.138,0.117-0.187h0.871C85.451,31.806,85.492,31.794,85.513,31.784L85.513,31.784z M118.105,43.172
		c0.084-0.01,0.238,0.021,0.23,0.107C118.252,43.289,118.099,43.257,118.105,43.172L118.105,43.172z M76.813,30.148
		c0.062,0,0.076,0.122-0.078,0.184C76.721,30.242,76.751,30.148,76.813,30.148L76.813,30.148z M77.267,29.969
		c0.009,0.084-0.022,0.179-0.106,0.17C77.151,30.053,77.183,29.959,77.267,29.969L77.267,29.969z M121.756,42.62h1.154
		c0.008,0.148,0.113,0.247,0.248,0.32v1.047h-1.088c-0.135-0.212-0.117-0.182-0.314-0.191V42.62L121.756,42.62z"/>
</g>
</svg>
